<svg xmlns="http://www.w3.org/2000/svg" viewBox="0 0 64 64">
  <defs>
    <linearGradient id="grad1" x1="0%" y1="0%" x2="100%" y2="100%">
      <stop offset="0%" style="stop-color:#6366f1;stop-opacity:1" />
      <stop offset="100%" style="stop-color:#8b5cf6;stop-opacity:1" />
    </linearGradient>
  </defs>

  <!-- Background circle -->
  <circle cx="32" cy="32" r="30" fill="url(#grad1)"/>

  <!-- Stylized dragon head - simplified for favicon -->
  <path d="M 20 45
           Q 18 38 22 32
           Q 24 26 28 24
           L 32 20
           L 36 24
           Q 40 26 42 32
           Q 46 38 44 45
           Q 40 48 36 50
           L 32 52
           L 28 50
           Q 24 48 20 45 Z"
        fill="#f8fafc" opacity="0.9"/>

  <!-- Dragon eye -->
  <circle cx="32" cy="32" r="4" fill="#1e293b"/>
  <circle cx="33" cy="31" r="1.5" fill="#f8fafc"/>

  <!-- Horns -->
  <path d="M 24 24 Q 20 16 24 12" stroke="#f8fafc" stroke-width="3" fill="none" stroke-linecap="round"/>
  <path d="M 40 24 Q 44 16 40 12" stroke="#f8fafc" stroke-width="3" fill="none" stroke-linecap="round"/>

  <!-- Data sparkles (representing NAS/storage) -->
  <circle cx="16" cy="24" r="2" fill="#fbbf24"/>
  <circle cx="48" cy="28" r="2" fill="#fbbf24"/>
  <circle cx="24" cy="52" r="1.5" fill="#fbbf24"/>
  <circle cx="44" cy="50" r="1.5" fill="#fbbf24"/>
</svg>
